<mxfile host="app.diagrams.net" modified="2024-03-16T05:34:33.088Z" agent="Mozilla/5.0 (Windows NT 10.0; Win64; x64) AppleWebKit/537.36 (KHTML, like Gecko) Chrome/122.0.0.0 Safari/537.36 Edg/122.0.0.0" etag="z67eePciZ6-B9XHuOviG" version="24.0.7" type="github">
  <diagram name="第 1 页" id="JeE2c27Bu6EYM7HYvsVZ">
    <mxGraphModel dx="815" dy="453" grid="1" gridSize="10" guides="1" tooltips="1" connect="1" arrows="1" fold="1" page="1" pageScale="1" pageWidth="827" pageHeight="1169" math="0" shadow="0">
      <root>
        <mxCell id="0" />
        <mxCell id="1" parent="0" />
        <mxCell id="_lNvy8FsxDelOkRnhLZO-93" value="&lt;p style=&quot;language:zh-CN;margin-top:0pt;margin-bottom:0pt;margin-left:0in;&lt;br/&gt;text-align:left;direction:ltr;unicode-bidi:embed;mso-line-break-override:none;&lt;br/&gt;word-break:normal;punctuation-wrap:hanging&quot;&gt;&lt;br&gt;&lt;/p&gt;" style="rounded=1;whiteSpace=wrap;html=1;arcSize=14;strokeColor=#1f77b4;align=center;verticalAlign=middle;fontFamily=Helvetica;fontSize=12;fontColor=default;fillColor=default;fillStyle=hatch;" parent="1" vertex="1">
          <mxGeometry x="80" y="720" width="140" height="70" as="geometry" />
        </mxCell>
        <mxCell id="_lNvy8FsxDelOkRnhLZO-94" value="" style="rounded=1;whiteSpace=wrap;html=1;arcSize=14;strokeColor=#1f77b4;align=center;verticalAlign=middle;fontFamily=Helvetica;fontSize=12;fontColor=default;fillColor=default;fillStyle=hatch;" parent="1" vertex="1">
          <mxGeometry x="247" y="720" width="140" height="70" as="geometry" />
        </mxCell>
        <mxCell id="_lNvy8FsxDelOkRnhLZO-95" value="&lt;p style=&quot;text-align: left; margin-top: 0pt; margin-bottom: 0pt; margin-left: 0in; direction: ltr; unicode-bidi: embed; word-break: normal;&quot;&gt;&lt;br&gt;&lt;/p&gt;" style="rounded=1;whiteSpace=wrap;html=1;arcSize=14;strokeColor=#1f77b4;align=center;verticalAlign=middle;fontFamily=Helvetica;fontSize=12;fontColor=default;fillColor=default;fillStyle=hatch;" parent="1" vertex="1">
          <mxGeometry x="581" y="720" width="140" height="70" as="geometry" />
        </mxCell>
        <mxCell id="_lNvy8FsxDelOkRnhLZO-96" value="&lt;p style=&quot;text-align: left; margin-top: 0pt; margin-bottom: 0pt; margin-left: 0in; direction: ltr; unicode-bidi: embed; word-break: normal;&quot;&gt;&lt;br&gt;&lt;/p&gt;" style="rounded=1;whiteSpace=wrap;html=1;arcSize=14;strokeColor=#1f77b4;align=center;verticalAlign=middle;fontFamily=Helvetica;fontSize=12;fontColor=default;fillColor=default;fillStyle=hatch;" parent="1" vertex="1">
          <mxGeometry x="414" y="720" width="140" height="70" as="geometry" />
        </mxCell>
        <mxCell id="_lNvy8FsxDelOkRnhLZO-97" value="&lt;p style=&quot;text-align: left; margin-top: 0pt; margin-bottom: 0pt; margin-left: 0in; direction: ltr; unicode-bidi: embed; word-break: normal;&quot;&gt;&lt;br&gt;&lt;/p&gt;" style="rounded=1;whiteSpace=wrap;html=1;arcSize=14;strokeColor=#2ca02c;fillStyle=hatch;" parent="1" vertex="1">
          <mxGeometry x="80" y="840" width="140" height="70" as="geometry" />
        </mxCell>
        <mxCell id="_lNvy8FsxDelOkRnhLZO-98" value="&lt;p style=&quot;text-align: left; margin-top: 0pt; margin-bottom: 0pt; margin-left: 0in; direction: ltr; unicode-bidi: embed; word-break: normal;&quot;&gt;&lt;br&gt;&lt;/p&gt;" style="rounded=1;whiteSpace=wrap;html=1;arcSize=14;strokeColor=#2ca02c;align=center;verticalAlign=middle;fontFamily=Helvetica;fontSize=12;fontColor=default;fillColor=default;fillStyle=hatch;" parent="1" vertex="1">
          <mxGeometry x="247" y="840" width="140" height="70" as="geometry" />
        </mxCell>
        <mxCell id="_lNvy8FsxDelOkRnhLZO-99" value="&lt;p style=&quot;text-align: left; margin-top: 0pt; margin-bottom: 0pt; margin-left: 0in; direction: ltr; unicode-bidi: embed; word-break: normal;&quot;&gt;&lt;br&gt;&lt;/p&gt;" style="rounded=1;whiteSpace=wrap;html=1;arcSize=14;strokeColor=#2ca02c;align=center;verticalAlign=middle;fontFamily=Helvetica;fontSize=12;fontColor=default;fillColor=default;fillStyle=hatch;" parent="1" vertex="1">
          <mxGeometry x="414" y="840" width="140" height="70" as="geometry" />
        </mxCell>
        <mxCell id="_lNvy8FsxDelOkRnhLZO-100" value="&lt;p style=&quot;text-align: left; margin-top: 0pt; margin-bottom: 0pt; margin-left: 0in; direction: ltr; unicode-bidi: embed; word-break: normal;&quot;&gt;&lt;br&gt;&lt;/p&gt;" style="rounded=1;whiteSpace=wrap;html=1;arcSize=14;strokeColor=#2ca02c;align=center;verticalAlign=middle;fontFamily=Helvetica;fontSize=12;fontColor=default;fillColor=default;fillStyle=hatch;" parent="1" vertex="1">
          <mxGeometry x="581" y="840" width="140" height="70" as="geometry" />
        </mxCell>
        <mxCell id="_lNvy8FsxDelOkRnhLZO-101" value="" style="rounded=1;whiteSpace=wrap;html=1;arcSize=14;strokeColor=#ff7f0e;align=center;verticalAlign=middle;fontFamily=Helvetica;fontSize=12;fontColor=default;fillColor=default;fillStyle=hatch;" parent="1" vertex="1">
          <mxGeometry x="581" y="960" width="140" height="70" as="geometry" />
        </mxCell>
        <mxCell id="_lNvy8FsxDelOkRnhLZO-102" value="" style="rounded=1;whiteSpace=wrap;html=1;arcSize=14;strokeColor=#ff7f0e;align=center;verticalAlign=middle;fontFamily=Helvetica;fontSize=12;fontColor=default;fillColor=default;fillStyle=hatch;" parent="1" vertex="1">
          <mxGeometry x="80" y="960" width="140" height="70" as="geometry" />
        </mxCell>
        <mxCell id="_lNvy8FsxDelOkRnhLZO-103" value="" style="rounded=1;whiteSpace=wrap;html=1;arcSize=14;strokeColor=#ff7f0e;align=center;verticalAlign=middle;fontFamily=Helvetica;fontSize=12;fontColor=default;fillColor=default;fillStyle=hatch;" parent="1" vertex="1">
          <mxGeometry x="247" y="960" width="140" height="70" as="geometry" />
        </mxCell>
        <mxCell id="_lNvy8FsxDelOkRnhLZO-104" value="" style="rounded=1;whiteSpace=wrap;html=1;arcSize=14;strokeColor=#ff7f0e;align=center;verticalAlign=middle;fontFamily=Helvetica;fontSize=12;fontColor=default;fillColor=default;fillStyle=hatch;" parent="1" vertex="1">
          <mxGeometry x="414" y="960" width="140" height="70" as="geometry" />
        </mxCell>
        <mxCell id="_lNvy8FsxDelOkRnhLZO-105" value="" style="endArrow=block;startArrow=block;html=1;rounded=0;strokeWidth=1.5;endSize=5;startSize=5;entryX=0.5;entryY=1;entryDx=0;entryDy=0;exitX=0.5;exitY=0;exitDx=0;exitDy=0;strokeColor=#007FFF;targetPerimeterSpacing=0;curved=0;startFill=1;endFill=1;" parent="1" source="_lNvy8FsxDelOkRnhLZO-97" target="_lNvy8FsxDelOkRnhLZO-93" edge="1">
          <mxGeometry width="50" height="50" relative="1" as="geometry">
            <mxPoint x="61" y="840" as="sourcePoint" />
            <mxPoint x="111" y="790" as="targetPoint" />
          </mxGeometry>
        </mxCell>
        <mxCell id="_lNvy8FsxDelOkRnhLZO-106" value="" style="endArrow=block;startArrow=block;html=1;rounded=0;strokeWidth=1.5;endSize=5;startSize=5;entryX=0.75;entryY=1;entryDx=0;entryDy=0;exitX=0.25;exitY=0;exitDx=0;exitDy=0;strokeColor=#FF3399;align=center;verticalAlign=middle;fontFamily=Helvetica;fontSize=11;fontColor=default;labelBackgroundColor=default;startFill=1;endFill=1;" parent="1" source="_lNvy8FsxDelOkRnhLZO-98" target="_lNvy8FsxDelOkRnhLZO-93" edge="1">
          <mxGeometry width="50" height="50" relative="1" as="geometry">
            <mxPoint x="181" y="850" as="sourcePoint" />
            <mxPoint x="181" y="800" as="targetPoint" />
          </mxGeometry>
        </mxCell>
        <mxCell id="_lNvy8FsxDelOkRnhLZO-107" value="" style="endArrow=block;startArrow=block;html=1;rounded=0;strokeWidth=1.5;endSize=5;startSize=5;entryX=0.75;entryY=0;entryDx=0;entryDy=0;exitX=0.25;exitY=1;exitDx=0;exitDy=0;strokeColor=#FF3399;align=center;verticalAlign=middle;fontFamily=Helvetica;fontSize=11;fontColor=default;labelBackgroundColor=default;startFill=1;endFill=1;" parent="1" source="_lNvy8FsxDelOkRnhLZO-94" target="_lNvy8FsxDelOkRnhLZO-97" edge="1">
          <mxGeometry width="50" height="50" relative="1" as="geometry">
            <mxPoint x="306" y="850" as="sourcePoint" />
            <mxPoint x="216" y="800" as="targetPoint" />
          </mxGeometry>
        </mxCell>
        <mxCell id="_lNvy8FsxDelOkRnhLZO-108" value="" style="endArrow=block;startArrow=block;html=1;rounded=0;strokeWidth=1.5;endSize=5;startSize=5;entryX=0.5;entryY=1;entryDx=0;entryDy=0;exitX=0.5;exitY=0;exitDx=0;exitDy=0;strokeColor=#007FFF;align=center;verticalAlign=middle;fontFamily=Helvetica;fontSize=11;fontColor=default;labelBackgroundColor=default;startFill=1;endFill=1;targetPerimeterSpacing=0;curved=0;" parent="1" source="_lNvy8FsxDelOkRnhLZO-98" target="_lNvy8FsxDelOkRnhLZO-94" edge="1">
          <mxGeometry width="50" height="50" relative="1" as="geometry">
            <mxPoint x="181" y="850" as="sourcePoint" />
            <mxPoint x="181" y="800" as="targetPoint" />
          </mxGeometry>
        </mxCell>
        <mxCell id="_lNvy8FsxDelOkRnhLZO-109" value="" style="endArrow=blockThin;startArrow=block;html=1;rounded=0;strokeWidth=1.5;endSize=5;startSize=5;entryX=0.75;entryY=1;entryDx=0;entryDy=0;exitX=0.25;exitY=0;exitDx=0;exitDy=0;strokeColor=#FF3399;align=center;verticalAlign=middle;fontFamily=Helvetica;fontSize=11;fontColor=default;labelBackgroundColor=default;startFill=1;endFill=1;" parent="1" source="_lNvy8FsxDelOkRnhLZO-100" target="_lNvy8FsxDelOkRnhLZO-96" edge="1">
          <mxGeometry width="50" height="50" relative="1" as="geometry">
            <mxPoint x="306" y="850" as="sourcePoint" />
            <mxPoint x="216" y="800" as="targetPoint" />
          </mxGeometry>
        </mxCell>
        <mxCell id="_lNvy8FsxDelOkRnhLZO-110" value="" style="endArrow=block;startArrow=block;html=1;rounded=0;strokeWidth=1.5;endSize=5;startSize=5;entryX=0.75;entryY=1;entryDx=0;entryDy=0;exitX=0.25;exitY=0;exitDx=0;exitDy=0;strokeColor=#FF3399;align=center;verticalAlign=middle;fontFamily=Helvetica;fontSize=11;fontColor=default;labelBackgroundColor=default;startFill=1;endFill=1;" parent="1" source="_lNvy8FsxDelOkRnhLZO-99" target="_lNvy8FsxDelOkRnhLZO-94" edge="1">
          <mxGeometry width="50" height="50" relative="1" as="geometry">
            <mxPoint x="306" y="850" as="sourcePoint" />
            <mxPoint x="216" y="800" as="targetPoint" />
          </mxGeometry>
        </mxCell>
        <mxCell id="_lNvy8FsxDelOkRnhLZO-111" value="" style="endArrow=block;startArrow=block;html=1;rounded=0;strokeWidth=1.5;endSize=5;startSize=5;entryX=0.5;entryY=1;entryDx=0;entryDy=0;exitX=0.5;exitY=0;exitDx=0;exitDy=0;strokeColor=#FF3399;align=center;verticalAlign=middle;fontFamily=Helvetica;fontSize=11;fontColor=default;labelBackgroundColor=default;startFill=1;endFill=1;" parent="1" source="_lNvy8FsxDelOkRnhLZO-100" target="_lNvy8FsxDelOkRnhLZO-95" edge="1">
          <mxGeometry width="50" height="50" relative="1" as="geometry">
            <mxPoint x="631" y="840" as="sourcePoint" />
            <mxPoint x="541" y="790" as="targetPoint" />
          </mxGeometry>
        </mxCell>
        <mxCell id="_lNvy8FsxDelOkRnhLZO-112" value="" style="endArrow=block;startArrow=block;html=1;rounded=0;strokeWidth=1.5;endSize=5;startSize=5;entryX=0.5;entryY=0;entryDx=0;entryDy=0;exitX=0.5;exitY=1;exitDx=0;exitDy=0;strokeColor=#FF3399;align=center;verticalAlign=middle;fontFamily=Helvetica;fontSize=11;fontColor=default;labelBackgroundColor=default;startFill=1;endFill=1;" parent="1" source="_lNvy8FsxDelOkRnhLZO-96" target="_lNvy8FsxDelOkRnhLZO-99" edge="1">
          <mxGeometry width="50" height="50" relative="1" as="geometry">
            <mxPoint x="631" y="790" as="sourcePoint" />
            <mxPoint x="541" y="840" as="targetPoint" />
          </mxGeometry>
        </mxCell>
        <mxCell id="_lNvy8FsxDelOkRnhLZO-113" value="" style="endArrow=block;startArrow=block;html=1;rounded=0;strokeWidth=1.5;endSize=5;startSize=5;entryX=0.25;entryY=1;entryDx=0;entryDy=0;exitX=0.75;exitY=0;exitDx=0;exitDy=0;strokeColor=#FF3399;startFill=1;endFill=1;" parent="1" source="_lNvy8FsxDelOkRnhLZO-102" target="_lNvy8FsxDelOkRnhLZO-98" edge="1">
          <mxGeometry width="50" height="50" relative="1" as="geometry">
            <mxPoint x="181" y="970" as="sourcePoint" />
            <mxPoint x="181" y="920" as="targetPoint" />
          </mxGeometry>
        </mxCell>
        <mxCell id="_lNvy8FsxDelOkRnhLZO-114" value="" style="endArrow=block;startArrow=block;html=1;rounded=0;strokeWidth=1.5;endSize=5;startSize=5;entryX=0.5;entryY=1;entryDx=0;entryDy=0;exitX=0.5;exitY=0;exitDx=0;exitDy=0;strokeColor=#007FFF;align=center;verticalAlign=middle;fontFamily=Helvetica;fontSize=11;fontColor=default;labelBackgroundColor=default;startFill=1;endFill=1;targetPerimeterSpacing=0;curved=0;" parent="1" source="_lNvy8FsxDelOkRnhLZO-103" target="_lNvy8FsxDelOkRnhLZO-98" edge="1">
          <mxGeometry width="50" height="50" relative="1" as="geometry">
            <mxPoint x="216" y="970" as="sourcePoint" />
            <mxPoint x="306" y="920" as="targetPoint" />
          </mxGeometry>
        </mxCell>
        <mxCell id="_lNvy8FsxDelOkRnhLZO-115" value="" style="endArrow=block;startArrow=block;html=1;rounded=0;strokeWidth=1.5;endSize=5;startSize=5;entryX=0.25;entryY=1;entryDx=0;entryDy=0;exitX=0.75;exitY=0;exitDx=0;exitDy=0;strokeColor=#FF3399;align=center;verticalAlign=middle;fontFamily=Helvetica;fontSize=11;fontColor=default;labelBackgroundColor=default;startFill=1;endFill=1;" parent="1" source="_lNvy8FsxDelOkRnhLZO-104" target="_lNvy8FsxDelOkRnhLZO-100" edge="1">
          <mxGeometry width="50" height="50" relative="1" as="geometry">
            <mxPoint x="181" y="970" as="sourcePoint" />
            <mxPoint x="181" y="920" as="targetPoint" />
          </mxGeometry>
        </mxCell>
        <mxCell id="_lNvy8FsxDelOkRnhLZO-116" value="" style="endArrow=block;startArrow=block;html=1;rounded=0;strokeWidth=1.5;endSize=5;startSize=5;entryX=0.5;entryY=1;entryDx=0;entryDy=0;exitX=0.5;exitY=0;exitDx=0;exitDy=0;strokeColor=#FF3399;align=center;verticalAlign=middle;fontFamily=Helvetica;fontSize=11;fontColor=default;labelBackgroundColor=default;startFill=1;endFill=1;" parent="1" source="_lNvy8FsxDelOkRnhLZO-104" target="_lNvy8FsxDelOkRnhLZO-99" edge="1">
          <mxGeometry width="50" height="50" relative="1" as="geometry">
            <mxPoint x="661" y="970" as="sourcePoint" />
            <mxPoint x="661" y="920" as="targetPoint" />
          </mxGeometry>
        </mxCell>
        <mxCell id="_lNvy8FsxDelOkRnhLZO-117" value="" style="endArrow=block;startArrow=block;html=1;rounded=0;strokeWidth=1.5;endSize=5;startSize=5;entryX=0.75;entryY=1;entryDx=0;entryDy=0;exitX=0.25;exitY=0;exitDx=0;exitDy=0;strokeColor=#007FFF;align=center;verticalAlign=middle;fontFamily=Helvetica;fontSize=11;fontColor=default;labelBackgroundColor=default;startFill=1;endFill=1;targetPerimeterSpacing=0;curved=0;" parent="1" source="_lNvy8FsxDelOkRnhLZO-104" target="_lNvy8FsxDelOkRnhLZO-98" edge="1">
          <mxGeometry width="50" height="50" relative="1" as="geometry">
            <mxPoint x="466" y="970" as="sourcePoint" />
            <mxPoint x="376" y="920" as="targetPoint" />
          </mxGeometry>
        </mxCell>
        <mxCell id="_lNvy8FsxDelOkRnhLZO-118" value="" style="endArrow=block;startArrow=block;html=1;rounded=0;strokeWidth=1.5;endSize=5;startSize=5;entryX=1;entryY=1;entryDx=0;entryDy=0;exitX=0;exitY=0;exitDx=0;exitDy=0;strokeColor=#007FFF;align=center;verticalAlign=middle;fontFamily=Helvetica;fontSize=11;fontColor=default;labelBackgroundColor=default;startFill=1;endFill=1;targetPerimeterSpacing=0;curved=0;jumpStyle=gap;jumpSize=5;" parent="1" source="_lNvy8FsxDelOkRnhLZO-101" target="_lNvy8FsxDelOkRnhLZO-98" edge="1">
          <mxGeometry width="50" height="50" relative="1" as="geometry">
            <mxPoint x="341" y="850" as="sourcePoint" />
            <mxPoint x="341" y="800" as="targetPoint" />
          </mxGeometry>
        </mxCell>
        <mxCell id="_lNvy8FsxDelOkRnhLZO-119" value="" style="endArrow=block;startArrow=block;html=1;rounded=0;strokeWidth=1.5;endSize=5;startSize=5;entryX=0;entryY=0;entryDx=0;entryDy=0;exitX=1;exitY=1;exitDx=0;exitDy=0;strokeColor=#FF3399;startFill=1;endFill=1;jumpStyle=gap;jumpSize=5;" parent="1" source="_lNvy8FsxDelOkRnhLZO-97" target="_lNvy8FsxDelOkRnhLZO-104" edge="1">
          <mxGeometry width="50" height="50" relative="1" as="geometry">
            <mxPoint x="261.5" y="1140" as="sourcePoint" />
            <mxPoint x="358.5" y="1090" as="targetPoint" />
          </mxGeometry>
        </mxCell>
        <mxCell id="_lNvy8FsxDelOkRnhLZO-120" value="" style="endArrow=blockThin;startArrow=block;html=1;rounded=0;strokeWidth=1.5;endSize=5;startSize=5;entryX=1;entryY=0;entryDx=0;entryDy=0;exitX=0.25;exitY=1;exitDx=0;exitDy=0;strokeColor=#FF3399;align=center;verticalAlign=middle;fontFamily=Helvetica;fontSize=11;fontColor=default;labelBackgroundColor=default;startFill=1;endFill=1;jumpStyle=gap;jumpSize=5;curved=0;shadow=0;flowAnimation=0;" parent="1" source="_lNvy8FsxDelOkRnhLZO-96" target="_lNvy8FsxDelOkRnhLZO-97" edge="1">
          <mxGeometry width="50" height="50" relative="1" as="geometry">
            <mxPoint x="626" y="850" as="sourcePoint" />
            <mxPoint x="362" y="800" as="targetPoint" />
          </mxGeometry>
        </mxCell>
        <mxCell id="_lNvy8FsxDelOkRnhLZO-121" value="" style="endArrow=blockThin;startArrow=block;html=1;rounded=0;strokeWidth=1.5;endSize=5;startSize=5;entryX=0.75;entryY=1;entryDx=0;entryDy=0;exitX=0;exitY=0;exitDx=0;exitDy=0;strokeColor=#FF3399;align=center;verticalAlign=middle;fontFamily=Helvetica;fontSize=11;fontColor=default;labelBackgroundColor=default;startFill=1;endFill=1;jumpStyle=gap;jumpSize=5;" parent="1" source="_lNvy8FsxDelOkRnhLZO-100" target="_lNvy8FsxDelOkRnhLZO-94" edge="1">
          <mxGeometry width="50" height="50" relative="1" as="geometry">
            <mxPoint x="626" y="850" as="sourcePoint" />
            <mxPoint x="529" y="800" as="targetPoint" />
          </mxGeometry>
        </mxCell>
      </root>
    </mxGraphModel>
  </diagram>
</mxfile>
